# xmcd CD database file
#
# Track frame offsets:
#	150
#	12335
#	29246
#	43240
#	62087
#	75976
#	98057
#	125608
#	147337
#	164750
#	180202
#	198482
#	211382
#	226321
#	238461
#	262297
#	276726
#	291153
#
# Disc length: 4111 seconds
#
# Revision: 1
# Processed by: cddbd v1.5.2PL0 Copyright (c) Steve Scherf et al.
# Submitted via: jetAudio 7
#
DISCID=1f100d12
DTITLE=Various Artist - Heart Of Country
DYEAR=2002
DGENRE=Country
TTITLE0=Heart Of Country Theme
TTITLE1=Shake On It
TTITLE2=Skinny Dippin'
TTITLE3=A Sacred Place
TTITLE4=The More I See Of You
TTITLE5=Dry River Bed
TTITLE6=My Land
TTITLE7=I Get A Longing to Hear Hank Sing The Blues
TTITLE8=She's A Barmaid In A Honky Tonk Downstairs
TTITLE9=Eerie Wind
TTITLE10=Man Trap
TTITLE11=I Believe
TTITLE12=Skip A Stone
TTITLE13=Wild At Heart
TTITLE14=The Way The World Is
TTITLE15=Nothing To Prove
TTITLE16=She's Gone, Gone, Gone
TTITLE17=The Shake Of A Hand
EXTD=2002
EXTT0=
EXTT1=
EXTT2=
EXTT3=
EXTT4=
EXTT5=
EXTT6=
EXTT7=
EXTT8=
EXTT9=
EXTT10=
EXTT11=
EXTT12=
EXTT13=
EXTT14=
EXTT15=
EXTT16=
EXTT17=
PLAYORDER=
